<!--?xml version="1.0" standalone="no"?-->
              <svg id="sw-js-blob-svg" viewBox="0 0 100 100" xmlns="http://www.w3.org/2000/svg" version="1.1">
                    <defs> 
                        <linearGradient id="sw-gradient" x1="0" x2="1" y1="1" y2="0">
                            <stop id="stop1" stop-color="rgba(248, 117, 55, 1)" offset="0%"></stop>
                            <stop id="stop2" stop-color="rgba(251, 168, 31, 1)" offset="100%"></stop>
                        </linearGradient>
                    </defs>
                <path fill="url(#sw-gradient)" d="M23.6,-37C29.5,-33,32.3,-24.5,35.9,-16.4C39.4,-8.4,43.9,-0.7,43.2,6.5C42.6,13.7,37,20.4,31.1,26.6C25.2,32.8,19.1,38.4,11.9,40.5C4.8,42.5,-3.4,41,-10.5,37.9C-17.6,34.8,-23.5,30.2,-28.8,24.7C-34.1,19.1,-38.8,12.7,-40,5.6C-41.3,-1.5,-39.2,-9.2,-35.9,-16.3C-32.5,-23.3,-27.8,-29.6,-21.6,-33.4C-15.4,-37.2,-7.7,-38.4,0.6,-39.3C8.9,-40.3,17.8,-40.9,23.6,-37Z" width="100%" height="100%" transform="translate(50 50)" stroke-width="0" style="transition: all 0.3s ease 0s;"></path>
              </svg>